<svg xmlns="http://www.w3.org/2000/svg" width="316" height="80" fill="none" viewBox="0 0 316 80"><path fill="url(#paint0_linear_792_63)" d="M22.2481 0C33.5192 0 48.7106 12.4132 48.7106 31.398C48.7106 50.4872 33.5192 62.796 22.2481 62.796C26.0705 60.1882 32.3431 47.1492 32.3431 31.398C32.3431 15.7512 26.7565 2.60781 22.2481 0ZM0 62.1701V0.104317H14.4074V51.426C14.4074 57.6847 9.60491 62.796 3.72436 62.796C2.35222 62.796 1.17611 62.5874 0 62.1701Z"/><path fill="url(#paint1_linear_792_63)" d="M76.3845 0.104317L106.277 62.9003H90.0078L68.2497 17.1072L76.3845 0.104317ZM61.3891 43.3939C66.3875 43.3939 70.5039 47.6707 70.5039 53.095C70.5039 58.4149 66.3875 62.796 61.3891 62.796C56.2926 62.796 52.2742 58.4149 52.2742 53.095C52.2742 47.6707 56.2926 43.3939 61.3891 43.3939Z"/><path fill="url(#paint2_linear_792_63)" d="M135.46 0.104317H153.396L135.46 16.0641V0.104317ZM199.068 0.104317V16.0641L181.133 0.104317H199.068ZM197.304 33.6929C200.343 36.7179 202.205 41.0991 202.205 46.0017C202.205 51.0087 200.147 55.4941 196.912 58.6235C194.07 61.2313 190.444 62.9003 186.327 62.9003C189.464 62.9003 191.914 60.1882 191.914 56.9545C191.914 55.1812 191.228 53.6165 190.15 52.5734C190.052 52.3648 164.765 29.9376 164.275 29.4161C161.237 26.391 159.277 22.0099 159.277 17.1072C159.277 12.1002 161.335 7.6148 164.667 4.48543C167.411 1.87762 171.136 0.208628 175.252 0.208628C172.116 0.208628 169.568 2.92075 169.568 6.15443C169.568 7.92774 170.352 9.49242 171.43 10.5355C171.528 10.7442 196.814 33.1713 197.304 33.6929ZM168.588 43.4982C173.586 43.4982 177.702 47.775 177.702 53.1993C177.702 58.5192 173.586 62.9003 168.588 62.9003C163.491 62.9003 159.473 58.5192 159.473 53.1993C159.473 47.775 163.491 43.4982 168.588 43.4982ZM124.189 0.104317V62.9003H109.782V0.104317H124.189ZM152.416 61.0227C159.473 72.3927 173.488 72.7057 175.742 62.6917C175.742 62.6917 173.194 78.9644 159.179 79.486C146.535 79.9032 141.145 70.9324 136.244 62.9003L124.189 42.3508L135.46 32.3368L152.416 61.0227Z"/><path fill="url(#paint3_linear_792_63)" d="M225.009 0.104317V28.8945H234.908V34.0058H225.009V51.426C225.009 57.6847 220.206 62.796 214.326 62.796C212.954 62.796 211.777 62.5874 210.601 62.1701V0.104317H225.009ZM252.843 0.104317C254.118 0.104317 255.392 0.312939 256.568 0.730189V62.796H242.062V11.4744C242.062 5.21562 246.865 0.104317 252.843 0.104317Z"/><path fill="url(#paint4_linear_792_63)" d="M285.707 0.104317L315.6 62.9003H299.33L277.572 17.1072L285.707 0.104317ZM270.712 43.3939C275.71 43.3939 279.827 47.6707 279.827 53.095C279.827 58.4149 275.71 62.796 270.712 62.796C265.615 62.796 261.597 58.4149 261.597 53.095C261.597 47.6707 265.615 43.3939 270.712 43.3939Z"/><defs><linearGradient id="paint0_linear_792_63" x1="156.198" x2="156.381" y1="-17.599" y2="168.958" gradientUnits="userSpaceOnUse"><stop stop-color="red"/><stop offset=".63" stop-color="red" stop-opacity="0"/></linearGradient><linearGradient id="paint1_linear_792_63" x1="156.198" x2="156.381" y1="-17.599" y2="168.958" gradientUnits="userSpaceOnUse"><stop stop-color="red"/><stop offset=".63" stop-color="red" stop-opacity="0"/></linearGradient><linearGradient id="paint2_linear_792_63" x1="156.198" x2="156.381" y1="-17.599" y2="168.958" gradientUnits="userSpaceOnUse"><stop stop-color="red"/><stop offset=".63" stop-color="red" stop-opacity="0"/></linearGradient><linearGradient id="paint3_linear_792_63" x1="156.198" x2="156.381" y1="-17.599" y2="168.958" gradientUnits="userSpaceOnUse"><stop stop-color="red"/><stop offset=".63" stop-color="red" stop-opacity="0"/></linearGradient><linearGradient id="paint4_linear_792_63" x1="156.198" x2="156.381" y1="-17.599" y2="168.958" gradientUnits="userSpaceOnUse"><stop stop-color="red"/><stop offset=".63" stop-color="red" stop-opacity="0"/></linearGradient></defs></svg>